<svg xmlns="http://www.w3.org/2000/svg" xmlns:xlink="http://www.w3.org/1999/xlink" width="637" zoomAndPan="magnify" viewBox="0 0 477.75 147.750002" height="197" preserveAspectRatio="xMidYMid meet" version="1.0"><defs><g/><clipPath id="ed22de7ac3"><path d="M 0.277344 0 L 477.222656 0 L 477.222656 147.5 L 0.277344 147.5 Z M 0.277344 0 " clip-rule="nonzero"/></clipPath><clipPath id="2f861ef034"><path d="M 0.277344 62 L 7 62 L 7 69 L 0.277344 69 Z M 0.277344 62 " clip-rule="nonzero"/></clipPath></defs><g clip-path="url(#ed22de7ac3)"><path fill="#ffffff" d="M 0.277344 0 L 477.222656 0 L 477.222656 147.5 L 0.277344 147.5 Z M 0.277344 0 " fill-opacity="1" fill-rule="nonzero"/></g><path fill="#1c8bee" d="M 129.46875 104.832031 C 131.605469 102.585938 133.980469 100.558594 135.957031 98.164062 C 138.894531 94.859375 140.996094 90.90625 142.625 86.808594 C 144.988281 80.226562 145.589844 73.011719 144.195312 66.15625 C 143.878906 63.949219 143.089844 61.851562 142.394531 59.75 C 141.738281 58.316406 141.203125 56.808594 140.328125 55.496094 C 137.882812 50.214844 133.433594 46.359375 129.429688 42.296875 C 129.414062 42.308594 129.402344 42.324219 129.386719 42.339844 C 127.597656 40.53125 125.804688 38.726562 124.015625 36.917969 C 117.976562 30.832031 111.9375 24.738281 105.90625 18.644531 C 101.457031 14.160156 96.9375 9.617188 91.472656 6.445312 C 81.949219 0.90625 69.867188 0.0742188 59.601562 4.085938 C 48.285156 8.507812 31.796875 27.335938 31.796875 27.335938 L 41.539062 37.082031 L 51.472656 27.140625 C 66.972656 42.628906 82.472656 58.113281 97.972656 73.601562 C 82.46875 89.070312 66.964844 104.542969 51.460938 120.011719 C 48.183594 116.78125 44.902344 113.546875 41.621094 110.3125 L 41.523438 110.214844 L 33.300781 118.433594 C 33.269531 118.46875 33.238281 118.5 33.207031 118.53125 C 33.101562 118.632812 33 118.734375 32.898438 118.839844 L 31.425781 120.3125 L 42.109375 131 C 42.175781 131.0625 42.238281 131.128906 42.300781 131.191406 L 42.410156 131.300781 L 42.414062 131.300781 C 42.90625 131.789062 43.402344 132.273438 43.90625 132.746094 C 48.234375 136.824219 53.0625 140.449219 58.566406 142.761719 C 69.261719 147.253906 82.0625 146.269531 92.007812 140.308594 C 97.375 137.089844 101.839844 132.597656 106.246094 128.15625 C 113.960938 120.375 121.671875 112.597656 129.386719 104.816406 " fill-opacity="1" fill-rule="nonzero"/><path fill="#1c8bee" d="M 40.824219 43.828125 L 48.710938 35.941406 L 56.59375 43.828125 L 48.710938 51.710938 Z M 40.824219 43.828125 " fill-opacity="1" fill-rule="nonzero"/><path fill="#1c8bee" d="M 23.320312 56.164062 L 29.367188 50.117188 L 35.414062 56.164062 L 29.367188 62.210938 Z M 23.320312 56.164062 " fill-opacity="1" fill-rule="nonzero"/><path fill="#1c8bee" d="M 28.828125 95.171875 L 36.167969 87.828125 L 43.511719 95.167969 L 36.167969 102.511719 Z M 28.828125 95.171875 " fill-opacity="1" fill-rule="nonzero"/><path fill="#1c8bee" d="M 42.066406 104.863281 L 49.257812 97.671875 L 56.449219 104.863281 L 49.257812 112.054688 Z M 42.066406 104.863281 " fill-opacity="1" fill-rule="nonzero"/><path fill="#1c8bee" d="M 20.246094 109.253906 L 28.496094 101 L 36.75 109.253906 L 28.496094 117.503906 Z M 20.246094 109.253906 " fill-opacity="1" fill-rule="nonzero"/><path fill="#1c8bee" d="M 13.035156 98.074219 L 17.800781 93.308594 L 22.570312 98.074219 L 17.800781 102.84375 Z M 13.035156 98.074219 " fill-opacity="1" fill-rule="nonzero"/><path fill="#1c8bee" d="M 14.5 86.742188 L 17.878906 83.363281 L 21.257812 86.742188 L 17.878906 90.121094 Z M 14.5 86.742188 " fill-opacity="1" fill-rule="nonzero"/><path fill="#1c8bee" d="M 3.011719 89.476562 L 5.796875 86.691406 L 8.582031 89.476562 L 5.796875 92.261719 Z M 3.011719 89.476562 " fill-opacity="1" fill-rule="nonzero"/><path fill="#1c8bee" d="M 9.980469 57.757812 L 13.902344 53.835938 L 17.828125 57.757812 L 13.902344 61.679688 Z M 9.980469 57.757812 " fill-opacity="1" fill-rule="nonzero"/><g clip-path="url(#2f861ef034)"><path fill="#1c8bee" d="M 0.277344 65.296875 L 3.535156 62.042969 L 6.789062 65.296875 L 3.535156 68.554688 Z M 0.277344 65.296875 " fill-opacity="1" fill-rule="nonzero"/></g><path fill="#1c8bee" d="M 22.300781 39.820312 L 29.367188 32.753906 L 36.4375 39.820312 L 29.367188 46.886719 Z M 22.300781 39.820312 " fill-opacity="1" fill-rule="nonzero"/><g fill="#000000" fill-opacity="1"><g transform="translate(153.796721, 87.494512)"><g><path d="M 23.25 -42.171875 C 26.988281 -42.171875 30.234375 -41.546875 32.984375 -40.296875 C 35.734375 -39.054688 37.851562 -37.289062 39.34375 -35 C 40.832031 -32.71875 41.578125 -30.007812 41.578125 -26.875 C 41.578125 -23.78125 40.832031 -21.078125 39.34375 -18.765625 C 37.851562 -16.453125 35.734375 -14.679688 32.984375 -13.453125 C 30.234375 -12.234375 26.988281 -11.625 23.25 -11.625 L 14.765625 -11.625 L 14.765625 0 L 5 0 L 5 -42.171875 Z M 22.71875 -19.578125 C 25.644531 -19.578125 27.867188 -20.207031 29.390625 -21.46875 C 30.921875 -22.738281 31.6875 -24.539062 31.6875 -26.875 C 31.6875 -29.238281 30.921875 -31.050781 29.390625 -32.3125 C 27.867188 -33.582031 25.644531 -34.21875 22.71875 -34.21875 L 14.765625 -34.21875 L 14.765625 -19.578125 Z M 22.71875 -19.578125 "/></g></g></g><g fill="#000000" fill-opacity="1"><g transform="translate(197.288464, 87.494512)"><g><path d="M 5 -42.171875 L 14.765625 -42.171875 L 14.765625 0 L 5 0 Z M 5 -42.171875 "/></g></g></g><g fill="#000000" fill-opacity="1"><g transform="translate(217.046513, 87.494512)"><g><path d="M 31.578125 0 L 21.390625 -14.640625 L 11.390625 0 L 0.1875 0 L 15.78125 -21.453125 L 0.96875 -42.171875 L 12.046875 -42.171875 L 21.75 -28.5 L 31.265625 -42.171875 L 41.8125 -42.171875 L 27.109375 -21.8125 L 42.84375 0 Z M 31.578125 0 "/></g></g></g><g fill="#000000" fill-opacity="1"><g transform="translate(258.490082, 87.494512)"><g><path d="M 45.546875 -42.171875 L 27.296875 0 L 17.65625 0 L -0.546875 -42.171875 L 10 -42.171875 L 22.828125 -12.046875 L 35.84375 -42.171875 Z M 45.546875 -42.171875 "/></g></g></g><g fill="#000000" fill-opacity="1"><g transform="translate(302.523941, 87.494512)"><g><path d="M 5 -42.171875 L 14.765625 -42.171875 L 14.765625 0 L 5 0 Z M 5 -42.171875 "/></g></g></g><g fill="#000000" fill-opacity="1"><g transform="translate(322.28199, 87.494512)"><g><path d="M 25.421875 0.71875 C 21.046875 0.71875 17.097656 -0.222656 13.578125 -2.109375 C 10.066406 -3.992188 7.316406 -6.59375 5.328125 -9.90625 C 3.335938 -13.21875 2.34375 -16.945312 2.34375 -21.09375 C 2.34375 -25.226562 3.335938 -28.953125 5.328125 -32.265625 C 7.316406 -35.578125 10.066406 -38.175781 13.578125 -40.0625 C 17.097656 -41.945312 21.046875 -42.890625 25.421875 -42.890625 C 29.804688 -42.890625 33.742188 -41.945312 37.234375 -40.0625 C 40.722656 -38.175781 43.472656 -35.578125 45.484375 -32.265625 C 47.492188 -28.953125 48.5 -25.226562 48.5 -21.09375 C 48.5 -16.945312 47.492188 -13.21875 45.484375 -9.90625 C 43.472656 -6.59375 40.722656 -3.992188 37.234375 -2.109375 C 33.742188 -0.222656 29.804688 0.71875 25.421875 0.71875 Z M 25.421875 -7.59375 C 27.910156 -7.59375 30.160156 -8.164062 32.171875 -9.3125 C 34.179688 -10.457031 35.757812 -12.050781 36.90625 -14.09375 C 38.050781 -16.144531 38.625 -18.476562 38.625 -21.09375 C 38.625 -23.695312 38.050781 -26.023438 36.90625 -28.078125 C 35.757812 -30.128906 34.179688 -31.722656 32.171875 -32.859375 C 30.160156 -34.003906 27.910156 -34.578125 25.421875 -34.578125 C 22.929688 -34.578125 20.679688 -34.003906 18.671875 -32.859375 C 16.671875 -31.722656 15.097656 -30.128906 13.953125 -28.078125 C 12.804688 -26.023438 12.234375 -23.695312 12.234375 -21.09375 C 12.234375 -18.476562 12.804688 -16.144531 13.953125 -14.09375 C 15.097656 -12.050781 16.671875 -10.457031 18.671875 -9.3125 C 20.679688 -8.164062 22.929688 -7.59375 25.421875 -7.59375 Z M 25.421875 -7.59375 "/></g></g></g><g fill="#000000" fill-opacity="1"><g transform="translate(373.122824, 87.494512)"><g><path d="M 43.6875 -42.171875 L 43.6875 0 L 35.671875 0 L 14.640625 -25.609375 L 14.640625 0 L 5 0 L 5 -42.171875 L 13.078125 -42.171875 L 34.046875 -16.5625 L 34.046875 -42.171875 Z M 43.6875 -42.171875 "/></g></g></g><g fill="#1c8bee" fill-opacity="1"><g transform="translate(158.782496, 107.300946)"><g><path d="M 8.09375 -4.9375 C 8.632812 -4.757812 9.054688 -4.46875 9.359375 -4.0625 C 9.671875 -3.664062 9.828125 -3.175781 9.828125 -2.59375 C 9.828125 -1.757812 9.503906 -1.117188 8.859375 -0.671875 C 8.210938 -0.222656 7.269531 0 6.03125 0 L 1.125 0 L 1.125 -9.5 L 5.765625 -9.5 C 6.921875 -9.5 7.804688 -9.273438 8.421875 -8.828125 C 9.046875 -8.390625 9.359375 -7.789062 9.359375 -7.03125 C 9.359375 -6.5625 9.242188 -6.144531 9.015625 -5.78125 C 8.796875 -5.425781 8.488281 -5.144531 8.09375 -4.9375 Z M 3.3125 -7.84375 L 3.3125 -5.59375 L 5.5 -5.59375 C 6.039062 -5.59375 6.445312 -5.6875 6.71875 -5.875 C 7 -6.070312 7.140625 -6.359375 7.140625 -6.734375 C 7.140625 -7.097656 7 -7.375 6.71875 -7.5625 C 6.445312 -7.75 6.039062 -7.84375 5.5 -7.84375 Z M 5.875 -1.65625 C 6.445312 -1.65625 6.878906 -1.75 7.171875 -1.9375 C 7.472656 -2.125 7.625 -2.421875 7.625 -2.828125 C 7.625 -3.609375 7.039062 -4 5.875 -4 L 3.3125 -4 L 3.3125 -1.65625 Z M 5.875 -1.65625 "/></g></g></g><g fill="#1c8bee" fill-opacity="1"><g transform="translate(172.114037, 107.300946)"><g><path d="M 5.34375 0.15625 C 3.988281 0.15625 2.929688 -0.21875 2.171875 -0.96875 C 1.421875 -1.71875 1.046875 -2.785156 1.046875 -4.171875 L 1.046875 -9.5 L 3.234375 -9.5 L 3.234375 -4.265625 C 3.234375 -2.554688 3.941406 -1.703125 5.359375 -1.703125 C 6.046875 -1.703125 6.566406 -1.90625 6.921875 -2.3125 C 7.285156 -2.726562 7.46875 -3.378906 7.46875 -4.265625 L 7.46875 -9.5 L 9.640625 -9.5 L 9.640625 -4.171875 C 9.640625 -2.785156 9.257812 -1.71875 8.5 -0.96875 C 7.75 -0.21875 6.695312 0.15625 5.34375 0.15625 Z M 5.34375 0.15625 "/></g></g></g><g fill="#1c8bee" fill-opacity="1"><g transform="translate(185.757429, 107.300946)"><g><path d="M 1.125 -9.5 L 3.328125 -9.5 L 3.328125 0 L 1.125 0 Z M 1.125 -9.5 "/></g></g></g><g fill="#1c8bee" fill-opacity="1"><g transform="translate(193.163667, 107.300946)"><g><path d="M 1.125 -9.5 L 3.328125 -9.5 L 3.328125 -1.796875 L 8.078125 -1.796875 L 8.078125 0 L 1.125 0 Z M 1.125 -9.5 "/></g></g></g><g fill="#1c8bee" fill-opacity="1"><g transform="translate(204.312199, 107.300946)"><g><path d="M 1.125 -9.5 L 5.4375 -9.5 C 6.46875 -9.5 7.378906 -9.300781 8.171875 -8.90625 C 8.960938 -8.507812 9.578125 -7.953125 10.015625 -7.234375 C 10.453125 -6.523438 10.671875 -5.695312 10.671875 -4.75 C 10.671875 -3.800781 10.453125 -2.96875 10.015625 -2.25 C 9.578125 -1.539062 8.960938 -0.988281 8.171875 -0.59375 C 7.378906 -0.195312 6.46875 0 5.4375 0 L 1.125 0 Z M 5.328125 -1.796875 C 6.273438 -1.796875 7.03125 -2.0625 7.59375 -2.59375 C 8.164062 -3.125 8.453125 -3.84375 8.453125 -4.75 C 8.453125 -5.65625 8.164062 -6.367188 7.59375 -6.890625 C 7.03125 -7.421875 6.273438 -7.6875 5.328125 -7.6875 L 3.328125 -7.6875 L 3.328125 -1.796875 Z M 5.328125 -1.796875 "/></g></g></g><g fill="#1c8bee" fill-opacity="1"><g transform="translate(218.199498, 107.300946)"><g><path d="M 1.78125 0.109375 C 1.40625 0.109375 1.09375 -0.015625 0.84375 -0.265625 C 0.59375 -0.523438 0.46875 -0.84375 0.46875 -1.21875 C 0.46875 -1.601562 0.59375 -1.914062 0.84375 -2.15625 C 1.09375 -2.394531 1.40625 -2.515625 1.78125 -2.515625 C 2.144531 -2.515625 2.453125 -2.394531 2.703125 -2.15625 C 2.960938 -1.914062 3.09375 -1.601562 3.09375 -1.21875 C 3.09375 -0.84375 2.960938 -0.523438 2.703125 -0.265625 C 2.453125 -0.015625 2.144531 0.109375 1.78125 0.109375 Z M 1.78125 0.109375 "/></g></g></g><g fill="#1c8bee" fill-opacity="1"><g transform="translate(224.710834, 107.300946)"><g/></g></g><g fill="#1c8bee" fill-opacity="1"><g transform="translate(231.50691, 107.300946)"><g><path d="M 1.125 -9.5 L 5.4375 -9.5 C 6.46875 -9.5 7.378906 -9.300781 8.171875 -8.90625 C 8.960938 -8.507812 9.578125 -7.953125 10.015625 -7.234375 C 10.453125 -6.523438 10.671875 -5.695312 10.671875 -4.75 C 10.671875 -3.800781 10.453125 -2.96875 10.015625 -2.25 C 9.578125 -1.539062 8.960938 -0.988281 8.171875 -0.59375 C 7.378906 -0.195312 6.46875 0 5.4375 0 L 1.125 0 Z M 5.328125 -1.796875 C 6.273438 -1.796875 7.03125 -2.0625 7.59375 -2.59375 C 8.164062 -3.125 8.453125 -3.84375 8.453125 -4.75 C 8.453125 -5.65625 8.164062 -6.367188 7.59375 -6.890625 C 7.03125 -7.421875 6.273438 -7.6875 5.328125 -7.6875 L 3.328125 -7.6875 L 3.328125 -1.796875 Z M 5.328125 -1.796875 "/></g></g></g><g fill="#1c8bee" fill-opacity="1"><g transform="translate(245.665547, 107.300946)"><g><path d="M 8.46875 -1.765625 L 8.46875 0 L 1.125 0 L 1.125 -9.5 L 8.296875 -9.5 L 8.296875 -7.734375 L 3.3125 -7.734375 L 3.3125 -5.671875 L 7.71875 -5.671875 L 7.71875 -3.953125 L 3.3125 -3.953125 L 3.3125 -1.765625 Z M 8.46875 -1.765625 "/></g></g></g><g fill="#1c8bee" fill-opacity="1"><g transform="translate(257.722531, 107.300946)"><g><path d="M 4.25 0.15625 C 3.5 0.15625 2.769531 0.0546875 2.0625 -0.140625 C 1.363281 -0.347656 0.800781 -0.613281 0.375 -0.9375 L 1.125 -2.59375 C 1.53125 -2.289062 2.015625 -2.046875 2.578125 -1.859375 C 3.140625 -1.679688 3.703125 -1.59375 4.265625 -1.59375 C 4.878906 -1.59375 5.335938 -1.6875 5.640625 -1.875 C 5.941406 -2.0625 6.09375 -2.3125 6.09375 -2.625 C 6.09375 -2.84375 6.003906 -3.023438 5.828125 -3.171875 C 5.648438 -3.328125 5.421875 -3.445312 5.140625 -3.53125 C 4.867188 -3.625 4.5 -3.726562 4.03125 -3.84375 C 3.300781 -4.007812 2.707031 -4.175781 2.25 -4.34375 C 1.789062 -4.519531 1.394531 -4.796875 1.0625 -5.171875 C 0.726562 -5.554688 0.5625 -6.066406 0.5625 -6.703125 C 0.5625 -7.253906 0.710938 -7.753906 1.015625 -8.203125 C 1.316406 -8.648438 1.765625 -9.003906 2.359375 -9.265625 C 2.960938 -9.523438 3.703125 -9.65625 4.578125 -9.65625 C 5.179688 -9.65625 5.769531 -9.582031 6.34375 -9.4375 C 6.925781 -9.289062 7.429688 -9.082031 7.859375 -8.8125 L 7.1875 -7.140625 C 6.3125 -7.640625 5.4375 -7.890625 4.5625 -7.890625 C 3.945312 -7.890625 3.488281 -7.789062 3.1875 -7.59375 C 2.894531 -7.394531 2.75 -7.132812 2.75 -6.8125 C 2.75 -6.476562 2.914062 -6.234375 3.25 -6.078125 C 3.59375 -5.921875 4.113281 -5.765625 4.8125 -5.609375 C 5.539062 -5.441406 6.132812 -5.269531 6.59375 -5.09375 C 7.050781 -4.925781 7.441406 -4.65625 7.765625 -4.28125 C 8.097656 -3.914062 8.265625 -3.414062 8.265625 -2.78125 C 8.265625 -2.238281 8.113281 -1.742188 7.8125 -1.296875 C 7.507812 -0.847656 7.054688 -0.492188 6.453125 -0.234375 C 5.847656 0.0234375 5.113281 0.15625 4.25 0.15625 Z M 4.25 0.15625 "/></g></g></g><g fill="#1c8bee" fill-opacity="1"><g transform="translate(269.332064, 107.300946)"><g><path d="M 1.125 -9.5 L 3.328125 -9.5 L 3.328125 0 L 1.125 0 Z M 1.125 -9.5 "/></g></g></g><g fill="#1c8bee" fill-opacity="1"><g transform="translate(276.738302, 107.300946)"><g><path d="M 7.546875 -4.890625 L 9.546875 -4.890625 L 9.546875 -1.046875 C 9.035156 -0.660156 8.4375 -0.363281 7.75 -0.15625 C 7.070312 0.0507812 6.390625 0.15625 5.703125 0.15625 C 4.722656 0.15625 3.835938 -0.0507812 3.046875 -0.46875 C 2.265625 -0.882812 1.648438 -1.46875 1.203125 -2.21875 C 0.753906 -2.96875 0.53125 -3.8125 0.53125 -4.75 C 0.53125 -5.6875 0.753906 -6.523438 1.203125 -7.265625 C 1.648438 -8.015625 2.269531 -8.597656 3.0625 -9.015625 C 3.863281 -9.441406 4.757812 -9.65625 5.75 -9.65625 C 6.582031 -9.65625 7.335938 -9.515625 8.015625 -9.234375 C 8.691406 -8.953125 9.257812 -8.546875 9.71875 -8.015625 L 8.3125 -6.71875 C 7.632812 -7.425781 6.816406 -7.78125 5.859375 -7.78125 C 5.253906 -7.78125 4.71875 -7.65625 4.25 -7.40625 C 3.78125 -7.15625 3.410156 -6.796875 3.140625 -6.328125 C 2.878906 -5.867188 2.75 -5.34375 2.75 -4.75 C 2.75 -4.15625 2.878906 -3.628906 3.140625 -3.171875 C 3.410156 -2.710938 3.773438 -2.351562 4.234375 -2.09375 C 4.703125 -1.832031 5.234375 -1.703125 5.828125 -1.703125 C 6.460938 -1.703125 7.035156 -1.835938 7.546875 -2.109375 Z M 7.546875 -4.890625 "/></g></g></g><g fill="#1c8bee" fill-opacity="1"><g transform="translate(290.151187, 107.300946)"><g><path d="M 9.828125 -9.5 L 9.828125 0 L 8.03125 0 L 3.296875 -5.765625 L 3.296875 0 L 1.125 0 L 1.125 -9.5 L 2.9375 -9.5 L 7.65625 -3.734375 L 7.65625 -9.5 Z M 9.828125 -9.5 "/></g></g></g><g fill="#1c8bee" fill-opacity="1"><g transform="translate(304.065768, 107.300946)"><g><path d="M 1.78125 0.109375 C 1.40625 0.109375 1.09375 -0.015625 0.84375 -0.265625 C 0.59375 -0.523438 0.46875 -0.84375 0.46875 -1.21875 C 0.46875 -1.601562 0.59375 -1.914062 0.84375 -2.15625 C 1.09375 -2.394531 1.40625 -2.515625 1.78125 -2.515625 C 2.144531 -2.515625 2.453125 -2.394531 2.703125 -2.15625 C 2.960938 -1.914062 3.09375 -1.601562 3.09375 -1.21875 C 3.09375 -0.84375 2.960938 -0.523438 2.703125 -0.265625 C 2.453125 -0.015625 2.144531 0.109375 1.78125 0.109375 Z M 1.78125 0.109375 "/></g></g></g><g fill="#1c8bee" fill-opacity="1"><g transform="translate(310.577104, 107.300946)"><g/></g></g><g fill="#1c8bee" fill-opacity="1"><g transform="translate(317.37318, 107.300946)"><g><path d="M 1.125 -9.5 L 3.328125 -9.5 L 3.328125 0 L 1.125 0 Z M 1.125 -9.5 "/></g></g></g><g fill="#1c8bee" fill-opacity="1"><g transform="translate(324.779418, 107.300946)"><g><path d="M 9.828125 -9.5 L 9.828125 0 L 8.03125 0 L 3.296875 -5.765625 L 3.296875 0 L 1.125 0 L 1.125 -9.5 L 2.9375 -9.5 L 7.65625 -3.734375 L 7.65625 -9.5 Z M 9.828125 -9.5 "/></g></g></g><g fill="#1c8bee" fill-opacity="1"><g transform="translate(338.693999, 107.300946)"><g><path d="M 9.828125 -9.5 L 9.828125 0 L 8.03125 0 L 3.296875 -5.765625 L 3.296875 0 L 1.125 0 L 1.125 -9.5 L 2.9375 -9.5 L 7.65625 -3.734375 L 7.65625 -9.5 Z M 9.828125 -9.5 "/></g></g></g><g fill="#1c8bee" fill-opacity="1"><g transform="translate(352.60858, 107.300946)"><g><path d="M 5.71875 0.15625 C 4.738281 0.15625 3.851562 -0.0507812 3.0625 -0.46875 C 2.269531 -0.894531 1.648438 -1.476562 1.203125 -2.21875 C 0.753906 -2.96875 0.53125 -3.8125 0.53125 -4.75 C 0.53125 -5.675781 0.753906 -6.507812 1.203125 -7.25 C 1.648438 -8 2.269531 -8.585938 3.0625 -9.015625 C 3.851562 -9.441406 4.738281 -9.65625 5.71875 -9.65625 C 6.707031 -9.65625 7.59375 -9.441406 8.375 -9.015625 C 9.164062 -8.585938 9.785156 -8 10.234375 -7.25 C 10.691406 -6.507812 10.921875 -5.675781 10.921875 -4.75 C 10.921875 -3.8125 10.691406 -2.96875 10.234375 -2.21875 C 9.785156 -1.476562 9.164062 -0.894531 8.375 -0.46875 C 7.59375 -0.0507812 6.707031 0.15625 5.71875 0.15625 Z M 5.71875 -1.703125 C 6.28125 -1.703125 6.785156 -1.832031 7.234375 -2.09375 C 7.691406 -2.351562 8.046875 -2.710938 8.296875 -3.171875 C 8.554688 -3.628906 8.6875 -4.15625 8.6875 -4.75 C 8.6875 -5.332031 8.554688 -5.851562 8.296875 -6.3125 C 8.046875 -6.78125 7.691406 -7.140625 7.234375 -7.390625 C 6.785156 -7.648438 6.28125 -7.78125 5.71875 -7.78125 C 5.15625 -7.78125 4.648438 -7.648438 4.203125 -7.390625 C 3.753906 -7.140625 3.398438 -6.78125 3.140625 -6.3125 C 2.878906 -5.851562 2.75 -5.332031 2.75 -4.75 C 2.75 -4.15625 2.878906 -3.628906 3.140625 -3.171875 C 3.398438 -2.710938 3.753906 -2.351562 4.203125 -2.09375 C 4.648438 -1.832031 5.15625 -1.703125 5.71875 -1.703125 Z M 5.71875 -1.703125 "/></g></g></g><g fill="#1c8bee" fill-opacity="1"><g transform="translate(366.699239, 107.300946)"><g><path d="M 10.25 -9.5 L 6.140625 0 L 3.96875 0 L -0.125 -9.5 L 2.25 -9.5 L 5.140625 -2.71875 L 8.0625 -9.5 Z M 10.25 -9.5 "/></g></g></g><g fill="#1c8bee" fill-opacity="1"><g transform="translate(379.25761, 107.300946)"><g><path d="M 7.375 -2.03125 L 2.96875 -2.03125 L 2.125 0 L -0.125 0 L 4.109375 -9.5 L 6.28125 -9.5 L 10.53125 0 L 8.21875 0 Z M 6.6875 -3.703125 L 5.1875 -7.34375 L 3.671875 -3.703125 Z M 6.6875 -3.703125 "/></g></g></g><g fill="#1c8bee" fill-opacity="1"><g transform="translate(392.127854, 107.300946)"><g><path d="M 3.09375 -7.703125 L 0.046875 -7.703125 L 0.046875 -9.5 L 8.328125 -9.5 L 8.328125 -7.703125 L 5.296875 -7.703125 L 5.296875 0 L 3.09375 0 Z M 3.09375 -7.703125 "/></g></g></g><g fill="#1c8bee" fill-opacity="1"><g transform="translate(403.46622, 107.300946)"><g><path d="M 8.46875 -1.765625 L 8.46875 0 L 1.125 0 L 1.125 -9.5 L 8.296875 -9.5 L 8.296875 -7.734375 L 3.3125 -7.734375 L 3.3125 -5.671875 L 7.71875 -5.671875 L 7.71875 -3.953125 L 3.3125 -3.953125 L 3.3125 -1.765625 Z M 8.46875 -1.765625 "/></g></g></g></svg>